ffmpeg started on 2016-11-24 at 07:16:06
Report written to "Output/NVENCh264/results/ffmpeg/sintelhp2000k.log"
Command line:
Tools/ffmpeg/ffmpeg -benchmark -y -i Input/y4m/sintel.y4m -c:v h264_nvenc -preset hp -b:v 2000k -an Output/NVENCh264/encoded/sintelhp2000k.mkv
ffmpeg version N-82227-gdb23fde Copyright (c) 2000-2016 the FFmpeg developers
  built with gcc 5.4.0 (Ubuntu 5.4.0-6ubuntu1~16.04.2) 20160609
  configuration: --prefix=/home/jaroslav/ffmpeg_build --pkg-config-flags=--static --extra-cflags=-I/home/jaroslav/ffmpeg_build/include --extra-ldflags=-L/home/jaroslav/ffmpeg_build/lib --bindir=/home/jaroslav/bin --enable-gpl --enable-libass --enable-libfdk-aac --enable-libfreetype --enable-libmp3lame --enable-libopus --enable-libtheora --enable-libvorbis --enable-libvpx --enable-libx264 --enable-libx265 --enable-nvenc --enable-libmfx --enable-libxvid --enable-libgsm --enable-libopencore-amrnb --enable-version3 --enable-nonfree
  libavutil      55. 35.100 / 55. 35.100
  libavcodec     57. 66.101 / 57. 66.101
  libavformat    57. 57.100 / 57. 57.100
  libavdevice    57.  2.100 / 57.  2.100
  libavfilter     6. 66.100 /  6. 66.100
  libswscale      4.  3.100 /  4.  3.100
  libswresample   2.  4.100 /  2.  4.100
  libpostproc    54.  2.100 / 54.  2.100
Input #0, yuv4mpegpipe, from 'Input/y4m/sintel.y4m':
  Duration: 00:00:20.83, start: 0.000000, bitrate: 2057307 kb/s
    Stream #0:0: Video: rawvideo (I420 / 0x30323449), yuv420p(progressive), 4096x1744, SAR 1:1 DAR 256:109, 24 fps, 24 tbr, 24 tbn, 24 tbc
Output #0, matroska, to 'Output/NVENCh264/encoded/sintelhp2000k.mkv':
  Metadata:
    encoder         : Lavf57.57.100
    Stream #0:0: Video: h264 (h264_nvenc) (Main) (H264 / 0x34363248), yuv420p, 4096x1744 [SAR 1:1 DAR 256:109], q=-1--1, 2000 kb/s, 24 fps, 1k tbn, 24 tbc
    Metadata:
      encoder         : Lavc57.66.101 h264_nvenc
    Side data:
      cpb: bitrate max/min/avg: 0/0/2000000 buffer size: 4000000 vbv_delay: -1
Stream mapping:
  Stream #0:0 -> #0:0 (rawvideo (native) -> h264 (h264_nvenc))
Press [q] to stop, [?] for help
frame=    3 fps=1.4 q=0.0 size=       0kB time=00:00:00.00 bitrate=N/A speed=   0x    frame=   24 fps=9.1 q=0.0 size=       0kB time=00:00:00.00 bitrate=N/A speed=   0x    frame=   45 fps= 14 q=49.0 size=       1kB time=00:00:00.58 bitrate=  10.0kbits/s speed=0.186x    frame=   66 fps= 18 q=49.0 size=       1kB time=00:00:01.45 bitrate=   4.0kbits/s speed=0.399x    frame=   87 fps= 21 q=49.0 size=       1kB time=00:00:02.33 bitrate=   2.5kbits/s speed=0.561x    frame=  108 fps= 23 q=49.0 size=       1kB time=00:00:03.20 bitrate=   1.8kbits/s speed=0.687x    frame=  129 fps= 25 q=49.0 size=       1kB time=00:00:04.08 bitrate=   1.4kbits/s speed=0.788x    frame=  150 fps= 26 q=49.0 size=    2628kB time=00:00:04.95 bitrate=4341.2kbits/s speed=0.87x    frame=  171 fps= 28 q=49.0 size=    2628kB time=00:00:05.83 bitrate=3690.1kbits/s speed=0.94x    frame=  192 fps= 29 q=49.0 size=    2628kB time=00:00:06.70 bitrate=3208.8kbits/s speed=0.998x    frame=  193 fps= 23 q=49.0 size=    2628kB time=00:00:06.75 bitrate=3188.9kbits/s speed=0.812x    frame=  194 fps= 17 q=49.0 size=    2628kB time=00:00:06.79 bitrate=3169.1kbits/s speed=0.585x    frame=  195 fps= 15 q=49.0 size=    2628kB time=00:00:06.83 bitrate=3150.1kbits/s speed=0.541x    frame=  216 fps= 16 q=49.0 size=    2628kB time=00:00:07.70 bitrate=2792.6kbits/s speed=0.586x    frame=  237 fps= 17 q=49.0 size=    2628kB time=00:00:08.58 bitrate=2507.9kbits/s speed=0.629x    frame=  258 fps= 18 q=49.0 size=    2628kB time=00:00:09.45 bitrate=2275.9kbits/s speed=0.668x    frame=  279 fps= 19 q=49.0 size=    4972kB time=00:00:10.33 bitrate=3941.6kbits/s speed=0.704x    frame=  300 fps= 20 q=49.0 size=    5295kB time=00:00:11.20 bitrate=3869.7kbits/s speed=0.738x    frame=  321 fps= 20 q=49.0 size=    5295kB time=00:00:12.08 bitrate=3589.5kbits/s speed=0.769x    frame=  342 fps= 21 q=49.0 size=    5295kB time=00:00:12.95 bitrate=3347.2kbits/s speed=0.799x    frame=  363 fps= 22 q=49.0 size=    5295kB time=00:00:13.83 bitrate=3135.5kbits/s speed=0.827x    frame=  384 fps= 22 q=49.0 size=    5295kB time=00:00:14.70 bitrate=2948.9kbits/s speed=0.853x    frame=  405 fps= 23 q=49.0 size=    5295kB time=00:00:15.58 bitrate=2783.4kbits/s speed=0.878x    frame=  426 fps= 23 q=49.0 size=    6249kB time=00:00:16.45 bitrate=3110.0kbits/s speed=0.901x    frame=  447 fps= 24 q=49.0 size=    6249kB time=00:00:17.33 bitrate=2953.0kbits/s speed=0.923x    frame=  468 fps= 24 q=49.0 size=    6567kB time=00:00:18.20 bitrate=2954.4kbits/s speed=0.944x    frame=  489 fps= 25 q=49.0 size=    6567kB time=00:00:19.08 bitrate=2819.0kbits/s speed=0.964x    frame=  500 fps= 25 q=49.0 Lsize=    7294kB time=00:00:20.79 bitrate=2873.9kbits/s speed=1.03x    
video:7290kB audio:0kB subtitle:0kB other streams:0kB global headers:0kB muxing overhead: 0.062359%
bench: utime=0.924s
bench: maxrss=837400kB
